<?xml version="1.0" encoding="UTF-8"?>
<svg width="180px" height="32px" viewBox="0 0 180 32" version="1.1" xmlns="http://www.w3.org/2000/svg" xmlns:xlink="http://www.w3.org/1999/xlink">
    <!-- Generator: Sketch 52.3 (67297) - http://www.bohemiancoding.com/sketch -->
    <title>Group 2</title>
    <desc>Created with Sketch.</desc>
    <defs>
        <linearGradient x1="100.21018%" y1="46.5445%" x2="100.21018%" y2="41.06994%" id="linearGradient-1">
            <stop stop-color="#002D74" offset="0%"></stop>
            <stop stop-color="#002D74" stop-opacity="0" offset="100%"></stop>
        </linearGradient>
        <linearGradient x1="50.0059603%" y1="89.1451149%" x2="50.0059603%" y2="10.4876437%" id="linearGradient-2">
            <stop stop-color="#002D74" offset="0%"></stop>
            <stop stop-color="#002D74" stop-opacity="0" offset="100%"></stop>
        </linearGradient>
        <linearGradient x1="50.2284768%" y1="89.1451149%" x2="50.2284768%" y2="10.4876437%" id="linearGradient-3">
            <stop stop-color="#002D74" stop-opacity="0" offset="0%"></stop>
            <stop stop-color="#002D74" offset="100%"></stop>
        </linearGradient>
    </defs>
    <g id="Symbols" stroke="none" stroke-width="1" fill="none" fill-rule="evenodd">
        <g id="Group-2">
            <g id="Horizontal" fill-rule="nonzero">
                <g id="Group">
                    <g id="SVGID_41_-link" fill="#FFFFFF">
                        <path d="M13.7777778,0.622222222 L0.355555556,8.35555556 L0.355555556,23.8222222 L13.7777778,31.5555556 L27.2,23.8222222 L27.2,8.35555556 L13.7777778,0.622222222 Z M13.7777778,0.622222222 L0.355555556,8.35555556 L0.355555556,23.8222222 L13.7777778,31.5555556 L27.2,23.8222222 L27.2,8.35555556 L13.7777778,0.622222222 Z" id="SVGID_41_"></path>
                    </g>
                    <g id="SVGID_43_-link" fill="#002D74">
                        <path d="M13.7777778,0.622222222 L0.355555556,8.35555556 L0.355555556,23.8222222 L13.7777778,31.5555556 L27.2,23.8222222 L27.2,8.35555556 L13.7777778,0.622222222 Z M8.53333333,7.28888889 L19.1111111,7.28888889 L20.3555556,12.6222222 L7.28888889,12.6222222 L8.53333333,7.28888889 Z M12.7111111,23.3777778 L10.4,25.5111111 L8.44444444,25.5111111 L3.64444444,17.1555556 L7.2,14.4888889 L10.3111111,16.4444444 L10.3111111,20 L12.7111111,22.2222222 L12.7111111,23.3777778 Z M11.2,19.8222222 L11.5555556,16.4444444 L10.4,13.4222222 L17.2444444,13.4222222 L16.0888889,16.4444444 L16.4444444,19.8222222 L13.7777778,19.8222222 L11.2,19.8222222 Z M19.1111111,25.5111111 L17.2444444,25.5111111 L14.9333333,23.3777778 L14.9333333,22.3111111 L17.3333333,20.0888889 L17.3333333,16.5333333 L20.4444444,14.4888889 L24,17.1555556 L19.1111111,25.5111111 Z" id="SVGID_43_"></path>
                    </g>
                    <g id="SVGID_45_-link" transform="translate(13.333333, 0.000000)" fill="url(#linearGradient-2)">
                        <path d="M0.444444444,0.622222222 L0.444444444,7.28888889 L5.68888889,7.28888889 L6.93333333,12.6222222 L0.444444444,12.6222222 L0.444444444,13.4222222 L3.91111111,13.4222222 L2.75555556,16.4444444 L3.11111111,19.8222222 L0.444444444,19.8222222 L0.444444444,31.5555556 L13.8666667,23.8222222 L13.8666667,8.35555556 L0.444444444,0.622222222 Z M5.77777778,25.5111111 L3.91111111,25.5111111 L1.6,23.3777778 L1.6,22.3111111 L4,20.0888889 L4,16.5333333 L7.11111111,14.4888889 L10.6666667,17.1555556 L5.77777778,25.5111111 Z" id="SVGID_45_"></path>
                    </g>
                    <path d="M11.2,19.8222222 L11.5555556,16.4444444 L10.4,13.4222222 L13.7777778,13.4222222 L13.7777778,12.6222222 L7.28888889,12.6222222 L8.53333333,7.28888889 L13.7777778,7.28888889 L13.7777778,0.622222222 L0.355555556,8.35555556 L0.355555556,23.8222222 L13.7777778,31.5555556 L13.7777778,19.8222222 L11.2,19.8222222 Z M12.7111111,23.3777778 L10.4,25.5111111 L8.44444444,25.5111111 L3.64444444,17.1555556 L7.2,14.4888889 L10.3111111,16.4444444 L10.3111111,20 L12.7111111,22.2222222 L12.7111111,23.3777778 Z" id="Shape" fill="url(#linearGradient-3)"></path>
                </g>
                <g id="Group" transform="translate(36.000000, 5.333333)" fill="#002D74">
                    <path d="M7.6,17.6 C3.86666667,17.6 1.06666667,14.6666667 1.06666667,11.0666667 C1.06666667,7.46666667 3.86666667,4.4 7.6,4.4 C10,4.4 11.4666667,5.33333333 12.6666667,6.53333333 L10.8,8.53333333 C9.86666667,7.6 8.93333333,6.93333333 7.46666667,6.93333333 C5.33333333,6.93333333 3.86666667,8.8 3.86666667,10.9333333 C3.86666667,13.2 5.46666667,15.0666667 7.73333333,15.0666667 C9.06666667,15.0666667 10.1333333,14.4 11.0666667,13.4666667 L12.8,15.2 C11.4666667,16.5333333 10,17.6 7.6,17.6 Z" id="Shape"></path>
                    <path d="M18.2666667,17.2 L15.3333333,17.2 L15.3333333,4.53333333 L18.2666667,4.53333333 L18.2666667,7.33333333 C19.0666667,5.46666667 20.5333333,4.13333333 22.8,4.26666667 L22.8,7.33333333 L22.6666667,7.33333333 C20.1333333,7.33333333 18.4,8.93333333 18.4,12.4 L18.4,17.2 L18.2666667,17.2 Z" id="Shape"></path>
                    <polygon id="Shape" points="37.7333333 4.53333333 31.4666667 21.0666667 28.5333333 21.0666667 30 17.2 24.6666667 4.53333333 27.8666667 4.53333333 31.3333333 13.7333333 34.8 4.53333333"></polygon>
                    <path d="M46.9333333,17.4666667 C44.8,17.4666667 43.4666667,16.4 42.6666667,15.2 L42.6666667,21.0666667 L39.7333333,21.0666667 L39.7333333,4.53333333 L42.6666667,4.53333333 L42.6666667,6.66666667 C43.6,5.33333333 44.9333333,4.26666667 46.9333333,4.26666667 C50,4.26666667 52.8,6.66666667 52.8,10.9333333 C52.8,15.2 49.8666667,17.4666667 46.9333333,17.4666667 Z M46.2666667,6.8 C44.2666667,6.8 42.5333333,8.4 42.5333333,10.9333333 C42.5333333,13.4666667 44.2666667,15.0666667 46.2666667,15.0666667 C48.2666667,15.0666667 49.8666667,13.4666667 49.8666667,10.9333333 C49.8666667,8.4 48.1333333,6.8 46.2666667,6.8 Z" id="Shape"></path>
                    <path d="M59.3333333,7.06666667 L59.3333333,13.3333333 C59.3333333,14.4 59.8666667,14.9333333 60.9333333,14.9333333 L62.1333333,14.9333333 L62.1333333,17.4666667 L60,17.4666667 C57.8666667,17.4666667 56.4,16.5333333 56.4,13.7333333 L56.4,7.06666667 L54.8,7.06666667 L54.8,4.53333333 L56.4,4.53333333 L56.4,1.06666667 L59.3333333,1.06666667 L59.3333333,4.53333333 L62,4.53333333 L62,7.06666667 L59.3333333,7.06666667 Z" id="Shape"></path>
                    <path d="M71.3333333,17.6 C67.4666667,17.6 64.5333333,14.6666667 64.5333333,11.0666667 C64.5333333,7.46666667 67.4666667,4.4 71.3333333,4.4 C75.2,4.4 78.1333333,7.33333333 78.1333333,11.0666667 C78.1333333,14.5333333 75.2,17.6 71.3333333,17.6 Z M71.3333333,6.8 C68.9333333,6.8 67.4666667,8.66666667 67.4666667,10.8 C67.4666667,13.0666667 69.0666667,14.9333333 71.3333333,14.9333333 C73.7333333,14.9333333 75.2,13.0666667 75.2,10.9333333 C75.2,8.66666667 73.6,6.8 71.3333333,6.8 Z" id="Shape"></path>
                    <path d="M92.5333333,17.6 C88.8,17.6 86,14.6666667 86,11.0666667 C86,7.46666667 88.8,4.4 92.5333333,4.4 C94.9333333,4.4 96.4,5.33333333 97.6,6.53333333 L95.7333333,8.53333333 C94.8,7.6 93.8666667,6.93333333 92.4,6.93333333 C90.2666667,6.93333333 88.8,8.8 88.8,10.9333333 C88.8,13.2 90.4,15.0666667 92.6666667,15.0666667 C94,15.0666667 95.0666667,14.4 96,13.4666667 L97.7333333,15.2 C96.4,16.5333333 94.9333333,17.6 92.5333333,17.6 Z" id="Shape"></path>
                    <path d="M106,17.6 C102.133333,17.6 99.2,14.6666667 99.2,11.0666667 C99.2,7.46666667 102.133333,4.4 106,4.4 C109.866667,4.4 112.8,7.33333333 112.8,11.0666667 C112.8,14.5333333 110,17.6 106,17.6 Z M106,6.8 C103.6,6.8 102.133333,8.66666667 102.133333,10.8 C102.133333,13.0666667 103.733333,14.9333333 106,14.9333333 C108.4,14.9333333 109.866667,13.0666667 109.866667,10.9333333 C110,8.66666667 108.266667,6.8 106,6.8 Z" id="Shape"></path>
                    <path d="M130.133333,4.26666667 C132.933333,4.26666667 134.533333,6 134.533333,9.06666667 L134.533333,17.2 L131.6,17.2 L131.6,10 C131.6,8 130.666667,6.93333333 129.066667,6.93333333 C127.466667,6.93333333 126.4,8 126.4,10.1333333 L126.4,17.3333333 L123.466667,17.3333333 L123.466667,10.1333333 C123.466667,8.13333333 122.533333,7.06666667 120.933333,7.06666667 C119.333333,7.06666667 118.266667,8.26666667 118.266667,10.2666667 L118.266667,17.4666667 L115.333333,17.4666667 L115.333333,4.8 L118.266667,4.8 L118.266667,6.66666667 C119.066667,5.6 120.133333,4.53333333 122.133333,4.53333333 C124,4.53333333 125.2,5.46666667 125.866667,6.8 C126.8,5.2 128.133333,4.26666667 130.133333,4.26666667 Z" id="Shape"></path>
                    <path d="M83.4666667,14.9333333 L83.4666667,16.4 C83.4666667,16.4 83.4666667,16.5333333 83.3333333,16.5333333 L82,17.3333333 C82,17.3333333 81.8666667,17.3333333 81.8666667,17.3333333 L80.5333333,16.5333333 C80.5333333,16.5333333 80.4,16.4 80.4,16.4 L80.4,14.9333333 C80.4,14.9333333 80.4,14.8 80.5333333,14.8 L81.8666667,14 C81.8666667,14 82,14 82,14 L83.3333333,14.8 C83.4666667,14.8 83.4666667,14.8 83.4666667,14.9333333 Z" id="Shape"></path>
                </g>
            </g>
        </g>
    </g>
</svg>
